<mxfile host="app.diagrams.net" modified="2022-06-29T21:18:35.339Z" agent="5.0 (Windows NT 10.0; Win64; x64) AppleWebKit/537.36 (KHTML, like Gecko) Chrome/103.0.5060.53 Safari/537.36 Edg/103.0.1264.37" etag="LyyJ2qGJaalnIxLzILg1" compressed="false" version="19.0.3" type="device">
  <diagram id="Hy_BEy-nUkcx5jqld4yk" name="Page-1">
    <mxGraphModel dx="1038" dy="570" grid="1" gridSize="10" guides="1" tooltips="1" connect="1" arrows="1" fold="1" page="1" pageScale="1" pageWidth="827" pageHeight="1169" math="0" shadow="0">
      <root>
        <mxCell id="0" />
        <mxCell id="1" parent="0" />
        <mxCell id="wk2UjfCF93DIRk1R1pbh-1" value="" style="group;fontFamily=Times New Roman;fontSize=16;labelBackgroundColor=none;" parent="1" vertex="1" connectable="0">
          <mxGeometry x="70" y="90" width="44" as="geometry" />
        </mxCell>
        <mxCell id="wk2UjfCF93DIRk1R1pbh-2" value="" style="endArrow=classic;rounded=0;shape=link;endSize=6;width=8.064516129032256;fontFamily=Times New Roman;fontSize=16;labelBackgroundColor=none;" parent="wk2UjfCF93DIRk1R1pbh-1" edge="1">
          <mxGeometry width="50" height="50" relative="1" as="geometry">
            <mxPoint as="sourcePoint" />
            <mxPoint x="40" as="targetPoint" />
          </mxGeometry>
        </mxCell>
        <mxCell id="wk2UjfCF93DIRk1R1pbh-3" value="" style="endArrow=none;rounded=0;strokeWidth=1;fontFamily=Times New Roman;fontSize=16;labelBackgroundColor=none;" parent="wk2UjfCF93DIRk1R1pbh-1" edge="1">
          <mxGeometry width="50" height="50" relative="1" as="geometry">
            <mxPoint x="34" y="10" as="sourcePoint" />
            <mxPoint x="34" y="-10" as="targetPoint" />
            <Array as="points">
              <mxPoint x="44" />
            </Array>
          </mxGeometry>
        </mxCell>
        <mxCell id="wk2UjfCF93DIRk1R1pbh-23" value="b" style="edgeStyle=none;curved=1;orthogonalLoop=1;jettySize=auto;strokeWidth=1;fontFamily=Times New Roman;fontSize=16;labelBackgroundColor=none;" parent="1" source="wk2UjfCF93DIRk1R1pbh-4" target="wk2UjfCF93DIRk1R1pbh-7" edge="1">
          <mxGeometry x="0.625" y="20" relative="1" as="geometry">
            <mxPoint as="offset" />
          </mxGeometry>
        </mxCell>
        <mxCell id="wk2UjfCF93DIRk1R1pbh-24" value="a" style="edgeStyle=none;curved=1;orthogonalLoop=1;jettySize=auto;strokeWidth=1;fontFamily=Times New Roman;fontSize=16;labelBackgroundColor=none;" parent="1" source="wk2UjfCF93DIRk1R1pbh-4" target="wk2UjfCF93DIRk1R1pbh-6" edge="1">
          <mxGeometry x="0.1779" y="27" relative="1" as="geometry">
            <Array as="points">
              <mxPoint x="130" y="180" />
            </Array>
            <mxPoint as="offset" />
          </mxGeometry>
        </mxCell>
        <mxCell id="wk2UjfCF93DIRk1R1pbh-4" value="0" style="ellipse;shape=doubleEllipse;dashed=0;whitespace=wrap;aspect=fixed;fontFamily=Times New Roman;fontSize=16;labelBackgroundColor=none;" parent="1" vertex="1">
          <mxGeometry x="140" y="60" width="60" height="60" as="geometry" />
        </mxCell>
        <mxCell id="wk2UjfCF93DIRk1R1pbh-22" value="b" style="edgeStyle=none;curved=1;orthogonalLoop=1;jettySize=auto;strokeWidth=1;fontFamily=Times New Roman;fontSize=16;labelBackgroundColor=none;" parent="1" source="wk2UjfCF93DIRk1R1pbh-6" target="wk2UjfCF93DIRk1R1pbh-8" edge="1">
          <mxGeometry x="0.625" y="20" relative="1" as="geometry">
            <mxPoint as="offset" />
          </mxGeometry>
        </mxCell>
        <mxCell id="wk2UjfCF93DIRk1R1pbh-6" value="1" style="ellipse;shape=doubleEllipse;dashed=0;whitespace=wrap;aspect=fixed;fontFamily=Times New Roman;fontSize=16;labelBackgroundColor=none;" parent="1" vertex="1">
          <mxGeometry x="140" y="240" width="60" height="60" as="geometry" />
        </mxCell>
        <mxCell id="wk2UjfCF93DIRk1R1pbh-19" value="b" style="edgeStyle=none;curved=1;orthogonalLoop=1;jettySize=auto;fontFamily=Times New Roman;fontSize=16;labelBackgroundColor=none;" parent="1" source="wk2UjfCF93DIRk1R1pbh-7" target="wk2UjfCF93DIRk1R1pbh-9" edge="1">
          <mxGeometry x="-0.071" y="-8" relative="1" as="geometry">
            <Array as="points">
              <mxPoint x="480" y="30" />
            </Array>
            <mxPoint as="offset" />
          </mxGeometry>
        </mxCell>
        <mxCell id="wk2UjfCF93DIRk1R1pbh-21" value="a" style="edgeStyle=none;curved=1;orthogonalLoop=1;jettySize=auto;strokeWidth=1;fontFamily=Times New Roman;fontSize=16;labelBackgroundColor=none;" parent="1" source="wk2UjfCF93DIRk1R1pbh-7" target="wk2UjfCF93DIRk1R1pbh-6" edge="1">
          <mxGeometry x="0.4754" y="-28" relative="1" as="geometry">
            <Array as="points">
              <mxPoint x="340" y="230" />
            </Array>
            <mxPoint as="offset" />
          </mxGeometry>
        </mxCell>
        <mxCell id="wk2UjfCF93DIRk1R1pbh-7" value="2" style="shape=ellipse;dashed=0;whitespace=wrap;aspect=fixed;perimeter=ellipsePerimeter;fontFamily=Times New Roman;fontSize=16;labelBackgroundColor=none;" parent="1" vertex="1">
          <mxGeometry x="360" y="60" width="60" height="60" as="geometry" />
        </mxCell>
        <mxCell id="wk2UjfCF93DIRk1R1pbh-15" value="b" style="orthogonalLoop=1;jettySize=auto;curved=1;fontFamily=Times New Roman;fontSize=16;labelBackgroundColor=none;" parent="1" source="wk2UjfCF93DIRk1R1pbh-8" target="wk2UjfCF93DIRk1R1pbh-10" edge="1">
          <mxGeometry x="0.071" y="-8" relative="1" as="geometry">
            <Array as="points">
              <mxPoint x="480" y="210" />
            </Array>
            <mxPoint as="offset" />
          </mxGeometry>
        </mxCell>
        <mxCell id="wk2UjfCF93DIRk1R1pbh-18" value="a" style="orthogonalLoop=1;jettySize=auto;curved=1;fontFamily=Times New Roman;fontSize=16;labelBackgroundColor=none;" parent="1" source="wk2UjfCF93DIRk1R1pbh-8" target="wk2UjfCF93DIRk1R1pbh-4" edge="1">
          <mxGeometry x="0.4928" y="18" relative="1" as="geometry">
            <Array as="points">
              <mxPoint x="340" y="130" />
            </Array>
            <mxPoint as="offset" />
          </mxGeometry>
        </mxCell>
        <mxCell id="wk2UjfCF93DIRk1R1pbh-8" value="4" style="shape=ellipse;dashed=0;whitespace=wrap;aspect=fixed;perimeter=ellipsePerimeter;fontFamily=Times New Roman;fontSize=16;labelBackgroundColor=none;" parent="1" vertex="1">
          <mxGeometry x="360" y="240" width="60" height="60" as="geometry" />
        </mxCell>
        <mxCell id="wk2UjfCF93DIRk1R1pbh-20" value="b" style="edgeStyle=none;curved=1;orthogonalLoop=1;jettySize=auto;fontFamily=Times New Roman;fontSize=16;labelBackgroundColor=none;" parent="1" source="wk2UjfCF93DIRk1R1pbh-9" target="wk2UjfCF93DIRk1R1pbh-7" edge="1">
          <mxGeometry x="0.2839" y="-33" relative="1" as="geometry">
            <Array as="points">
              <mxPoint x="480" y="150" />
            </Array>
            <mxPoint as="offset" />
          </mxGeometry>
        </mxCell>
        <mxCell id="wk2UjfCF93DIRk1R1pbh-9" value="3" style="shape=ellipse;dashed=0;whitespace=wrap;aspect=fixed;perimeter=ellipsePerimeter;fontFamily=Times New Roman;fontSize=16;labelBackgroundColor=none;" parent="1" vertex="1">
          <mxGeometry x="540" y="60" width="60" height="60" as="geometry" />
        </mxCell>
        <mxCell id="wk2UjfCF93DIRk1R1pbh-16" value="b" style="orthogonalLoop=1;jettySize=auto;curved=1;fontFamily=Times New Roman;fontSize=16;labelBackgroundColor=none;" parent="1" source="wk2UjfCF93DIRk1R1pbh-10" target="wk2UjfCF93DIRk1R1pbh-8" edge="1">
          <mxGeometry x="-0.2839" y="-33" relative="1" as="geometry">
            <Array as="points">
              <mxPoint x="480" y="330" />
            </Array>
            <mxPoint as="offset" />
          </mxGeometry>
        </mxCell>
        <mxCell id="wk2UjfCF93DIRk1R1pbh-10" value="5" style="shape=ellipse;dashed=0;whitespace=wrap;aspect=fixed;perimeter=ellipsePerimeter;fontFamily=Times New Roman;fontSize=16;labelBackgroundColor=none;" parent="1" vertex="1">
          <mxGeometry x="540" y="240" width="60" height="60" as="geometry" />
        </mxCell>
        <mxCell id="wk2UjfCF93DIRk1R1pbh-13" value="a" style="edgeStyle=orthogonalEdgeStyle;orthogonalLoop=1;jettySize=auto;curved=1;fontFamily=Times New Roman;fontSize=16;labelBackgroundColor=none;" parent="1" source="wk2UjfCF93DIRk1R1pbh-9" target="wk2UjfCF93DIRk1R1pbh-9" edge="1">
          <mxGeometry x="0.7288" y="15" relative="1" as="geometry">
            <Array as="points">
              <mxPoint x="640" y="130" />
            </Array>
            <mxPoint as="offset" />
          </mxGeometry>
        </mxCell>
        <mxCell id="wk2UjfCF93DIRk1R1pbh-14" value="a" style="edgeStyle=orthogonalEdgeStyle;curved=1;orthogonalLoop=1;jettySize=auto;fontFamily=Times New Roman;fontSize=16;labelBackgroundColor=none;" parent="1" source="wk2UjfCF93DIRk1R1pbh-10" target="wk2UjfCF93DIRk1R1pbh-10" edge="1">
          <mxGeometry x="0.7291" y="15" relative="1" as="geometry">
            <Array as="points">
              <mxPoint x="640" y="310" />
            </Array>
            <mxPoint as="offset" />
          </mxGeometry>
        </mxCell>
        <mxCell id="wk2UjfCF93DIRk1R1pbh-25" value="a" style="edgeStyle=none;curved=1;orthogonalLoop=1;jettySize=auto;strokeWidth=1;fontFamily=Times New Roman;fontSize=16;labelBackgroundColor=none;" parent="1" source="wk2UjfCF93DIRk1R1pbh-6" target="wk2UjfCF93DIRk1R1pbh-6" edge="1">
          <mxGeometry x="0.7288" y="-15" relative="1" as="geometry">
            <Array as="points">
              <mxPoint x="100" y="310" />
            </Array>
            <mxPoint as="offset" />
          </mxGeometry>
        </mxCell>
      </root>
    </mxGraphModel>
  </diagram>
</mxfile>
